<?xml version="1.0" encoding="UTF-8" standalone="no"?>
<!DOCTYPE svg PUBLIC "-//W3C//DTD SVG 1.1//EN" "http://www.w3.org/Graphics/SVG/1.1/DTD/svg11.dtd">
<svg version="1.1" xmlns="http://www.w3.org/2000/svg" xmlns:xlink="http://www.w3.org/1999/xlink" preserveAspectRatio="xMidYMid meet" viewBox="0 0 1000 1000" width="1000" height="1000"><defs><path d="M900 500C900 720.77 720.77 900 500 900C279.23 900 100 720.77 100 500C100 279.23 279.23 100 500 100C720.77 100 900 279.23 900 500Z" id="b5FdJOctw"></path><path d="M740.73 544.89C767.33 544.96 782.11 544.99 785.06 545C788.98 545.01 792.74 543.47 795.52 540.7C798.3 537.93 799.86 534.18 799.87 530.26C799.88 524.32 799.99 476.83 800 470.89C800.02 463.06 793.1 456.1 785.26 456.08C782.31 456.08 767.53 456.05 740.93 455.99C741.01 420.6 741.05 400.93 741.06 397C741.1 380.68 727.89 367.41 711.57 367.38C695.25 367.34 681.99 380.54 681.95 396.87C681.91 417.55 681.54 583.06 681.49 603.75C681.45 620.07 694.66 633.33 710.98 633.37C727.3 633.4 740.56 620.2 740.6 603.88C740.62 596.01 740.66 576.35 740.73 544.89Z" id="b4kmnGQmN"></path><path d="M407.15 366.91C407.19 350.59 393.99 337.33 377.67 337.29C361.34 337.26 348.08 350.46 348.04 366.78C347.98 393.38 347.51 606.17 347.45 632.77C347.41 649.09 360.62 662.35 376.94 662.39C393.26 662.43 406.52 649.23 406.56 632.9C406.68 579.71 407.09 393.51 407.15 366.91Z" id="f2ySMQlC5R"></path><path d="M318.42 396.27C318.46 379.95 305.26 366.69 288.93 366.65C272.61 366.61 259.35 379.82 259.31 396.14C259.3 400.07 259.26 419.74 259.18 455.13C232.63 455.07 217.88 455.03 214.94 455.03C211.02 455.02 207.26 456.56 204.48 459.33C201.69 462.1 200.14 465.85 200.13 469.77C200.11 475.7 200.02 523.19 200 529.13C199.99 533.21 201.64 536.91 204.31 539.58C206.97 542.26 210.66 543.93 214.75 543.93C217.69 543.94 232.44 543.97 258.98 544.03C258.9 579.42 258.86 599.09 258.85 603.02C258.81 619.34 272.02 632.6 288.34 632.64C304.66 632.68 317.93 619.47 317.96 603.15C318.05 561.77 318.38 416.96 318.42 396.27Z" id="f14EVFEsbv"></path><path d="M652.46 367.24C652.5 350.92 639.3 337.66 622.97 337.62C606.65 337.59 593.39 350.79 593.35 367.11C593.29 393.71 592.82 606.5 592.76 633.1C592.72 649.42 605.93 662.69 622.25 662.72C638.57 662.76 651.83 649.56 651.87 633.23C651.99 580.04 652.4 393.84 652.46 367.24Z" id="ew2zKQ817"></path><path d="M436.51 455.64L436.31 544.31L563.4 544.37L563.6 455.71L436.51 455.64Z" id="bw27MmEiQ"></path></defs><g><g><g><use xlink:href="#b5FdJOctw" opacity="1" fill="#222428" fill-opacity="1"></use></g><g><use xlink:href="#b4kmnGQmN" opacity="1" fill="#f4f5f8" fill-opacity="1"></use></g><g><use xlink:href="#f2ySMQlC5R" opacity="1" fill="#f4f5f8" fill-opacity="1"></use><g><use xlink:href="#f2ySMQlC5R" opacity="1" fill-opacity="0" stroke="#000000" stroke-width="1" stroke-opacity="0"></use></g></g><g><use xlink:href="#f14EVFEsbv" opacity="1" fill="#f4f5f8" fill-opacity="1"></use><g><use xlink:href="#f14EVFEsbv" opacity="1" fill-opacity="0" stroke="#000000" stroke-width="1" stroke-opacity="0"></use></g></g><g><use xlink:href="#ew2zKQ817" opacity="1" fill="#f4f5f8" fill-opacity="1"></use><g><use xlink:href="#ew2zKQ817" opacity="1" fill-opacity="0" stroke="#000000" stroke-width="1" stroke-opacity="0"></use></g></g><g><use xlink:href="#bw27MmEiQ" opacity="1" fill="#f4f5f8" fill-opacity="1"></use><g><use xlink:href="#bw27MmEiQ" opacity="1" fill-opacity="0" stroke="#000000" stroke-width="1" stroke-opacity="0"></use></g></g></g></g></svg>